# xmcd
#
# Track frame offsets: 
#        150
#        12196
#        23583
#        32978
#        59036
#        69783
#        79316
#        89136
#        99813
#        110238
#        121483
#        132208
#        141993
#        154768
#
# Disc length: 2647 seconds
#
# Revision: 0
# Processed by: cddbd v1.4PL0 Copyright (c) Steve Scherf et al.
# Submitted via: ExactAudioCopy v0.95a3
#
DISCID=c00a550e
DTITLE=Jimmy Page and John Paul Jones - Lovin' Up a Storm
DYEAR=2000
DGENRE=Oldies
TTITLE0=Breathless
TTITLE1=Everyday
TTITLE2=Boll Weevil Song
TTITLE3=Burn Up
TTITLE4=Dixie Fried
TTITLE5=Rave On
TTITLE6=Lovin' Up a Storm
TTITLE7=Lonely Weekends
TTITLE8=Down the Line
TTITLE9=Think it Over
TTITLE10=Fabulous
TTITLE11=Livin' Lovin' Wreck
TTITLE12=Everything I Do Is Wrong
TTITLE13=One Long Kiss
EXTD=
EXTT0=
EXTT1=
EXTT2=
EXTT3=
EXTT4=
EXTT5=
EXTT6=
EXTT7=
EXTT8=
EXTT9=
EXTT10=
EXTT11=
EXTT12=
EXTT13=
PLAYORDER=
